<?xml version="1.0" encoding="utf-8"?>
<!-- Generator: Adobe Illustrator 19.0.0, SVG Export Plug-In . SVG Version: 6.00 Build 0)  -->
<svg version="1.1" id="Livello_1" xmlns="http://www.w3.org/2000/svg" xmlns:xlink="http://www.w3.org/1999/xlink" x="0px" y="0px"
	 viewBox="-346 358.2 498 124.7" style="enable-background:new -346 358.2 498 124.7;" xml:space="preserve">
<style type="text/css">
	.st0{fill:#FFFFFF;}
	.st1{fill:url(#SVGID_1_);}
	.st2{fill:url(#SVGID_2_);}
	.st3{fill:url(#SVGID_3_);}
</style>
<g id="XMLID_1_">
	<g id="XMLID_3_">
		<g id="XMLID_4_">
			<g id="XMLID_16_">
				<g id="XMLID_68_">
					<path d="M-200.1,454.9h-17v-65.7h27.9c17.2,0,27.1,8.1,27.1,22.4c0,14.3-9.9,22.5-27.1,22.5h-10.8V454.9z M-215.4,453.2h13.6
						v-20.9h12.6c16.1,0,25.3-7.6,25.3-20.7c0-13.3-9-20.6-25.3-20.6h-26.1V453.2z M-201.9,421.8v-20.1h12c8.6,0,12.8,3.3,12.8,10.1
						c0,6.7-4.2,9.9-12.7,10L-201.9,421.8z M-200.1,403.4v16.7l10.2-0.1c7.6,0,11-2.5,11-8.2c0-5.8-3.4-8.3-11-8.3H-200.1z"/>
				</g>
			</g>
			<g id="XMLID_15_">
				<g id="XMLID_56_">
					<path d="M-126.5,456.1c-19.5,0-33.7-14.3-33.7-34c0-19.7,14.2-34.1,33.7-34.1c19.6,0,33.8,14.3,33.8,34.1
						C-92.7,441.8-106.9,456.1-126.5,456.1z M-126.5,389.7c-18.5,0-31.9,13.6-31.9,32.3c0,18.7,13.4,32.3,31.9,32.3
						c18.6,0,32-13.6,32-32.3C-94.5,403.3-107.9,389.7-126.5,389.7z M-126.5,442.6c-10.8,0-17.9-8.1-17.9-20.5
						c0-12.5,7-20.6,17.9-20.6c10.8,0,17.8,8.1,18,20.5C-108.5,434.6-115.6,442.6-126.5,442.6z M-126.5,403.2
						c-9.8,0-16.1,7.4-16.1,18.8c0,11.5,6.3,18.8,16.1,18.8c9.9,0,16.2-7.4,16.2-18.8C-110.3,410.6-116.7,403.2-126.5,403.2z"/>
				</g>
			</g>
			<g id="XMLID_14_">
				<g id="XMLID_51_">
					<path d="M-27.5,454.9h-18.1l-0.3-0.3c-1.4-1.8-2.2-5.9-2.8-13.2c-0.4-6.4-3-8.7-9.4-8.7h-12.1v22.2H-87v-65.7h31.7
						c16.5,0,25.6,7.4,25.6,20.9c0,8-4.3,14.2-11.2,16.5c5.3,2,8.2,6.2,8.8,12.6c0.9,9.1,1.2,12.2,3.2,14.3L-27.5,454.9z
						 M-44.7,453.2h13.5c-1.4-2.4-1.8-6-2.5-13.9c-0.6-6.9-4.1-10.8-10.7-12l-5-1l5.1-0.7c7.9-1.1,13.1-7.2,13.1-15.6
						c0-12.3-8.5-19.1-23.8-19.1h-30v62.3h13.4V431H-58c7.2,0,10.5,3.1,11,10.3C-46.5,447.6-45.8,451.5-44.7,453.2z M-71.8,420.9
						v-19.2h14.2c10.6,0,12.9,5.2,12.9,9.7c0,8.4-6.9,9.4-12.8,9.5L-71.8,420.9z M-70,403.4v15.8l12.5-0.1c7.9,0,11.1-2.2,11.1-7.7
						c0-5.3-3.8-7.9-11.1-7.9H-70z"/>
				</g>
			</g>
			<g id="XMLID_9_">
				<g id="XMLID_11_">
					<path d="M12.3,454.9h-17v-51.3H-27v-14.4h61.7v14.4H12.3V454.9z M-3,453.2h13.6v-51.3H33v-11h-58.3v11H-3V453.2z"/>
				</g>
			</g>
			<g id="XMLID_8_">
				<g id="XMLID_43_">
					<path d="M98.1,454.9H79.7l-5.5-13.8H49.6l-5.4,13.8H26.9l26.3-65.7h18.4L98.1,454.9z M80.9,453.2h14.7l-25.1-62.3h-16
						l-24.9,62.3H43l5.4-13.8h27L80.9,453.2z M71.6,429.5H52.2l9-22.7h1.6L71.6,429.5z M54.8,427.8h14.4L62,409.5L54.8,427.8z"/>
				</g>
			</g>
			<g id="XMLID_5_">
				<g id="XMLID_6_">
					<path d="M151,454.9h-49.6v-65.7h17.1v51.3H151V454.9z M103.1,453.2h46.2v-11h-32.5v-51.3h-13.7V453.2z"/>
				</g>
			</g>
		</g>
	</g>
	<g id="XMLID_2_">
		<g id="XMLID_39_">
			<g id="XMLID_42_">
				<polygon class="st0" points="-330.1,381.8 -240.3,405.8 -278.3,367.8 -330.2,381.7 -344.1,433.6 -305.8,471.9 -313.9,441.7 				
					"/>
				<linearGradient id="SVGID_1_" gradientUnits="userSpaceOnUse" x1="-345.0922" y1="419.8399" x2="-239.3077" y2="419.8399">
					<stop  offset="0" style="stop-color:#83C282"/>
					<stop  offset="1" style="stop-color:#4AAF4F"/>
				</linearGradient>
				<path class="st1" d="M-305.8,472.9c-0.3,0-0.5-0.1-0.7-0.3l-38.3-38.3c-0.3-0.2-0.3-0.6-0.3-1l13.9-51.9
					c0.1-0.3,0.4-0.6,0.7-0.7l51.9-13.9c0.3-0.1,0.7,0,1,0.3l38,38c0.3,0.3,0.4,0.8,0.2,1.2c-0.2,0.4-0.7,0.6-1.1,0.5l-88.1-23.6
					l15.8,58.2l8.1,30.2c0.1,0.4-0.1,0.9-0.5,1.1C-305.5,472.8-305.6,472.9-305.8,472.9z M-343,433.3l35.3,35.3l-7.1-26.6
					l-15.3-56.6L-343,433.3z M-326.5,381.7l82.9,22.2l-35-35L-326.5,381.7z"/>
			</g>
			<g id="XMLID_41_">
				<polygon class="st0" points="-283.9,449.8 -305.8,471.9 -254.2,457.7 -240.3,405.8 				"/>
				<linearGradient id="SVGID_2_" gradientUnits="userSpaceOnUse" x1="-306.792" y1="438.8395" x2="-239.3075" y2="438.8395">
					<stop  offset="0" style="stop-color:#83C282"/>
					<stop  offset="1" style="stop-color:#4AAF4F"/>
				</linearGradient>
				<path class="st2" d="M-305.8,472.9c-0.3,0-0.7-0.2-0.9-0.5c-0.2-0.4-0.2-0.9,0.2-1.2l65.5-66.1c0.3-0.3,0.8-0.4,1.2-0.2
					c0.4,0.2,0.6,0.7,0.5,1.1l-13.9,51.9c-0.1,0.3-0.4,0.6-0.7,0.7l-51.6,14.2C-305.6,472.9-305.7,472.9-305.8,472.9z M-242.2,409.1
					l-41,41.3l0,0l-19.3,19.5l47.5-13.1L-242.2,409.1z"/>
			</g>
			<g id="XMLID_40_">
				<polygon class="st0" points="-330.1,381.8 -313.9,441.7 -305.8,471.9 -283.9,449.8 -240.3,405.8 				"/>
				<linearGradient id="SVGID_3_" gradientUnits="userSpaceOnUse" x1="-331.0922" y1="426.8404" x2="-239.3076" y2="426.8404">
					<stop  offset="0" style="stop-color:#83C282"/>
					<stop  offset="1" style="stop-color:#4AAF4F"/>
				</linearGradient>
				<path class="st3" d="M-305.8,472.9c-0.1,0-0.2,0-0.3,0c-0.3-0.1-0.6-0.4-0.7-0.7l-8.1-30.2l-16.2-59.9c-0.1-0.3,0-0.7,0.3-1
					c0.3-0.3,0.6-0.3,1-0.3l89.8,24c0.3,0.1,0.6,0.4,0.7,0.7c0.1,0.3,0,0.7-0.3,1l-65.5,66.1C-305.3,472.8-305.5,472.9-305.8,472.9z
					 M-328.7,383.2l15.8,58.2l7.7,28.5l63.1-63.7L-328.7,383.2z"/>
			</g>
		</g>
	</g>
</g>
</svg>
